<svg width="212" height="212" viewBox="0 0 212 212" fill="none" xmlns="http://www.w3.org/2000/svg">
<g clip-path="url(#clip0_1_1289)">
<path d="M102.632 90.4L82.9059 61.1379C80.1482 57.048 78.2211 52.4451 77.2364 47.5961C76.2516 42.7472 76.2288 37.7488 77.1693 32.8909C78.1098 28.033 79.9948 23.4123 82.7151 19.2968C85.4353 15.1814 88.9366 11.6531 93.0159 8.91666V8.91666C101.183 3.43744 111.168 1.46167 120.776 3.42357C130.383 5.38547 138.827 11.1245 144.252 19.3794L155.555 36.5791V42.3898L163.975 51.4135C164.337 51.799 164.614 52.2581 164.787 52.7603C164.96 53.2625 165.024 53.7961 164.977 54.3257C164.93 54.8552 164.771 55.3684 164.512 55.8311C164.253 56.2938 163.9 56.6953 163.475 57.0089L159.189 60.133L165.344 74.6495C166.626 77.6757 166.721 81.082 165.608 84.1759C164.496 87.2699 162.259 89.8193 159.355 91.3058L149.458 96.3645C146.547 97.8532 144.189 100.25 142.731 103.201L141.349 106L102.632 90.4Z" stroke="#211E1E" stroke-width="2" stroke-miterlimit="10"/>
<path d="M174.429 184.764L170.488 143.148L148.963 134.58V108.742L78.3212 80.5068V122.338L59.0969 141.571C49.5738 151.096 43.6425 163.677 42.326 177.143L38.9102 212.001L174.429 184.764Z" stroke="#211E1E" stroke-width="2" stroke-miterlimit="10"/>
<path d="M125.222 24.7052C127.807 28.8493 129.173 33.6312 129.166 38.5087V48.0939C129.172 49.3032 128.811 50.486 128.131 51.4882C127.442 52.494 126.47 53.2752 125.338 53.7342C124.232 54.1736 123.022 54.2831 121.855 54.0492C120.688 53.8152 119.615 53.2481 118.767 52.417L115.607 49.3165C114.843 48.5732 113.818 48.1563 112.749 48.1547C111.81 48.1502 110.899 48.4728 110.173 49.0666C109.42 49.6867 108.916 50.5558 108.753 51.515C108.591 52.4743 108.78 53.4598 109.287 54.2915L118.55 69.4325L107.468 91.2406L102.744 89.3728L82.9397 60.462C77.6558 52.7551 75.497 43.3445 76.8968 34.1193C78.2965 24.8941 83.1511 16.5373 90.486 10.7263C97.821 4.91541 107.093 2.08058 116.442 2.79092C125.79 3.50127 134.522 7.70421 140.886 14.556L125.222 24.7052Z" stroke="#211E1E" stroke-width="2" stroke-miterlimit="10"/>
</g>
<defs>
<clipPath id="clip0_1_1289">
<rect width="212" height="212" fill="white"/>
</clipPath>
</defs>
</svg>
