<svg width="212" height="212" viewBox="0 0 212 212" fill="none" xmlns="http://www.w3.org/2000/svg">
<g clip-path="url(#clip0_1_1294)">
<path d="M92.0625 165.02L80.0803 184H43C43 184 64.9884 137 94.2747 137C117.523 137 146.337 143.763 146.337 143.763C146.699 143.861 147.035 144.038 147.318 144.28C147.601 144.523 147.826 144.825 147.974 145.165C148.25 146.048 146.352 152.354 140.322 152.68L112.957 153.013" stroke="#211E1E" stroke-width="2" stroke-miterlimit="10"/>
<path d="M119.937 47.3836L131.92 28L169 28C169 28 147.012 76 117.725 76C94.4772 76 65.6632 69.0931 65.6632 69.0931C65.3009 68.9932 64.9655 68.8126 64.682 68.5647C64.3985 68.3168 64.1742 68.008 64.0257 67.6611C63.7502 66.7592 65.6475 60.3191 71.678 59.9868L99.0434 59.6466" stroke="#211E1E" stroke-width="2" stroke-miterlimit="10"/>
<path d="M143 152C134.309 160.698 125.815 165 119.523 165H88" stroke="#211E1E" stroke-width="2" stroke-miterlimit="10"/>
<path d="M70 60C78.6908 51.3017 87.185 47 93.4771 47L125 47" stroke="#211E1E" stroke-width="2" stroke-miterlimit="10"/>
<path d="M133 140.562C133 140.562 142.606 134.841 144.928 132.942L153.469 125.211C156.65 122.429 161.883 120.79 165.445 123.091L165.962 123.43C166.247 123.612 166.487 123.856 166.665 124.142C166.842 124.428 166.953 124.751 166.988 125.085C167.023 125.419 166.982 125.757 166.868 126.073C166.754 126.39 166.569 126.677 166.328 126.913C166.328 126.913 148.038 145.606 147.712 146" stroke="#211E1E" stroke-width="2" stroke-miterlimit="10"/>
<path d="M79 71.4375C79 71.4375 69.6761 77.1588 67.4223 79.058L59.1328 86.7888C56.0454 89.5706 50.9666 91.2097 47.5088 88.9086L47.0071 88.5698C46.7305 88.3876 46.4975 88.1443 46.3252 87.8579C46.153 87.5715 46.0459 87.2493 46.0118 86.9151C45.9777 86.5808 46.0176 86.243 46.1284 85.9265C46.2392 85.6101 46.4181 85.323 46.652 85.0866C46.652 85.0866 64.4044 66.394 64.7209 66" stroke="#211E1E" stroke-width="2" stroke-miterlimit="10"/>
<path d="M165.025 123.477L168.348 120.171C168.579 119.941 168.757 119.66 168.869 119.348C168.98 119.036 169.021 118.702 168.99 118.371C168.958 118.04 168.855 117.721 168.687 117.438C168.52 117.154 168.292 116.914 168.022 116.736C166.062 115.438 163.747 114.841 161.429 115.036C159.112 115.231 156.92 116.208 155.187 117.816L144.44 127.832C143.508 128.699 142.502 129.476 141.435 130.154L127 140" stroke="#211E1E" stroke-width="2" stroke-miterlimit="10"/>
<path d="M47.07 88.8619L43.6675 92.0358C43.4306 92.2565 43.2483 92.5268 43.1345 92.8261C43.0207 93.1255 42.9783 93.4461 43.0104 93.7638C43.0426 94.0815 43.1485 94.3879 43.3202 94.6599C43.4919 94.9318 43.7248 95.1622 44.0014 95.3336C46.0083 96.5795 48.3785 97.1525 50.7508 96.9652C53.1232 96.778 55.3676 95.8407 57.1423 94.2963L68.1448 84.6816C69.0989 83.8493 70.1287 83.1031 71.2214 82.4521L86 73" stroke="#211E1E" stroke-width="2" stroke-miterlimit="10"/>
<circle cx="107" cy="106" r="27" stroke="#211E1E" stroke-width="2"/>
<path d="M119.43 102.608L119.43 102.609C119.223 104.029 118.738 105.042 118.084 105.755C117.43 106.468 116.573 106.916 115.564 107.153L114.265 107.458L115.444 108.082C116.879 108.841 117.898 109.769 118.408 110.953C118.916 112.133 118.958 113.652 118.262 115.672C117.409 118.146 116.003 119.429 114.173 120.002C112.297 120.588 109.916 120.447 107.098 119.905L106.631 119.815L106.518 120.276L105.261 125.392L102.905 124.795L104.145 119.748L104.264 119.266L103.782 119.144C102.922 118.927 102.046 118.699 101.143 118.448L100.646 118.311L100.523 118.811L99.2804 123.877L96.9277 123.28L98.186 118.147L98.3034 117.668L97.8261 117.544C97.5182 117.464 97.2046 117.381 96.8874 117.297C96.4147 117.172 95.934 117.045 95.4526 116.922L95.4521 116.922L91.6894 115.969L92.9416 113.038C93.1668 113.098 93.4571 113.175 93.7468 113.251C94.0516 113.331 94.358 113.41 94.5871 113.466C94.7006 113.494 94.8003 113.517 94.8728 113.532C94.9064 113.54 94.9463 113.547 94.9821 113.552L94.9832 113.552C94.9881 113.553 94.9986 113.554 95.0129 113.556C95.5888 113.684 96.0616 113.564 96.4191 113.302C96.7674 113.046 96.9585 112.69 97.0588 112.438L97.0715 112.406L97.0797 112.372L99.2545 103.513L99.1532 103.488L99.161 103.465L99.2599 103.489L100.813 97.1651L100.824 97.1205L100.827 97.0746C100.851 96.6526 100.794 96.1323 100.497 95.6565C100.201 95.1839 99.706 94.8145 98.9697 94.6143C98.9598 94.6099 98.9524 94.6069 98.9484 94.6053L98.9473 94.6048C98.9104 94.5899 98.8688 94.5765 98.8355 94.5664C98.763 94.5442 98.6628 94.5167 98.5497 94.487C98.3208 94.4268 98.0135 94.3507 97.7076 94.2765C97.4459 94.2131 97.1833 94.1504 96.9682 94.0995L97.6128 91.4701L101.242 92.3908L101.238 92.4085L101.706 92.5268C102.401 92.7023 103.116 92.8687 103.839 93.0365L104.32 93.148L104.438 92.6687L105.681 87.6084L108.035 88.2051L106.818 93.1634L106.697 93.6553L107.19 93.7697C108.083 93.9767 108.977 94.1846 109.845 94.4044L110.334 94.5279L110.454 94.0388L111.66 89.1234L114.016 89.7198L112.771 94.7892L112.663 95.2304L113.091 95.3804C115.166 96.1062 116.897 96.993 118.034 98.1573C119.146 99.297 119.707 100.718 119.43 102.608ZM101.603 114.748L101.484 115.231L101.966 115.352C102.143 115.397 102.354 115.454 102.593 115.518C103.822 115.848 105.787 116.376 107.64 116.474C108.748 116.533 109.875 116.443 110.811 116.029C111.761 115.607 112.496 114.857 112.799 113.671L112.801 113.666L112.811 113.624C113.118 112.376 112.829 111.33 112.178 110.484C111.545 109.662 110.588 109.05 109.578 108.585C107.956 107.837 106.047 107.405 104.804 107.123C104.505 107.056 104.245 106.997 104.037 106.944L103.549 106.822L103.429 107.31L101.603 114.748ZM104.265 103.905L104.146 104.387L104.627 104.509C104.774 104.546 104.95 104.594 105.15 104.648C106.173 104.926 107.823 105.374 109.385 105.433C110.323 105.468 111.289 105.367 112.098 104.967C112.921 104.561 113.551 103.86 113.827 102.784L113.83 102.779L113.84 102.737C114.118 101.603 113.897 100.652 113.353 99.8819C112.825 99.1326 112.016 98.5876 111.167 98.1807C109.807 97.5292 108.197 97.1698 107.161 96.9387C106.913 96.8834 106.698 96.8354 106.527 96.7926L106.04 96.6702L105.92 97.1584L104.265 103.905Z" stroke="#211E1E"/>
</g>
<defs>
<clipPath id="clip0_1_1294">
<rect width="212" height="212" fill="white"/>
</clipPath>
</defs>
</svg>
