<svg width="212" height="212" viewBox="0 0 212 212" fill="none" xmlns="http://www.w3.org/2000/svg">
<g clip-path="url(#clip0_1_1308)">
<path d="M72.9313 47.5H23.1712C20.1981 47.5 17.2541 48.0856 14.5073 49.2234C11.7605 50.3611 9.26467 52.0288 7.16235 54.1311C2.91653 58.3769 0.53125 64.1355 0.53125 70.14V170.28C0.53125 176.285 2.91653 182.043 7.16235 186.289C9.26467 188.391 11.7605 190.059 14.5073 191.197C17.2541 192.334 20.1981 192.92 23.1712 192.92V192.92V210.36C23.1741 210.59 23.2398 210.815 23.3612 211.01C23.4848 211.202 23.6574 211.357 23.8612 211.46C24.0686 211.561 24.3001 211.603 24.5298 211.58C24.7594 211.557 24.9781 211.471 25.1612 211.33L49.0013 192.94H95.4713C98.4456 192.941 101.391 192.356 104.139 191.218C106.887 190.08 109.384 188.412 111.487 186.308C113.589 184.205 115.257 181.707 116.393 178.959C117.53 176.21 118.114 173.264 118.111 170.29V99.29" stroke="#211E1E" stroke-width="2" stroke-miterlimit="10"/>
<path d="M95.5697 0.410158H188.83C191.803 0.408844 194.748 0.993548 197.495 2.13085C200.243 3.26815 202.739 4.93575 204.842 7.03833C206.944 9.14091 208.612 11.6372 209.749 14.3847C210.886 17.1321 211.471 20.0767 211.47 23.0502V75.9302C211.471 78.9037 210.886 81.8483 209.749 84.5957C208.612 87.3431 206.944 89.8394 204.842 91.942C202.739 94.0446 200.243 95.7122 197.495 96.8495C194.748 97.9868 191.803 98.5715 188.83 98.5702V98.5702V116C188.826 116.23 188.76 116.455 188.638 116.651C188.517 116.846 188.345 117.005 188.14 117.11C187.932 117.212 187.701 117.253 187.471 117.23C187.242 117.207 187.023 117.121 186.84 116.98L163 98.5802H95.5697C89.5652 98.5802 83.8066 96.1949 79.5608 91.9491C75.315 87.7032 72.9297 81.9447 72.9297 75.9402V23.0502C72.9297 17.0457 75.315 11.2871 79.5608 7.04126C83.8066 2.79544 89.5652 0.410158 95.5697 0.410158V0.410158Z" stroke="#211E1E" stroke-width="2" stroke-miterlimit="10"/>
<path d="M59.3194 166.74C61.1438 166.742 62.9277 166.202 64.4455 165.19C65.9633 164.178 67.1466 162.738 67.8456 161.053C68.5447 159.368 68.7281 157.513 68.3727 155.724C68.0173 153.934 67.1389 152.29 65.8489 151C64.5589 149.71 62.9151 148.832 61.1257 148.476C59.3362 148.121 57.4816 148.304 55.7964 149.004C54.1113 149.703 52.6714 150.886 51.6591 152.404C50.6467 153.921 50.1074 155.705 50.1094 157.53C50.1094 159.972 51.0797 162.315 52.8069 164.042C54.5341 165.769 56.8767 166.74 59.3194 166.74Z" stroke="#211E1E" stroke-width="2" stroke-miterlimit="10"/>
<path d="M85.3641 96.0003C85.5198 97.532 85.5966 99.0707 85.5941 100.61C85.5941 118.87 67.0941 123.75 68.3641 140.49H49.3641C46.8341 120.7 64.8241 112.18 64.8241 102.43C64.8241 96.9503 61.5241 94.8203 57.7241 94.8203C53.4241 94.8203 50.6341 97.5603 47.3341 101.22L35.4141 88.0903C41.6241 79.5703 50.4141 73.7903 60.5041 73.7903C64.7858 73.7016 69.0331 74.5729 72.9341 76.3403" stroke="#211E1E" stroke-width="2" stroke-miterlimit="10"/>
<circle cx="141.9" cy="49.9" r="35.9" stroke="#211E1E" stroke-width="2"/>
<path d="M154.43 45.6083L154.43 45.6089C154.223 47.0294 153.738 48.0421 153.084 48.7551C152.43 49.4681 151.573 49.916 150.564 50.1531L149.265 50.4581L150.444 51.0818C151.879 51.8406 152.898 52.7687 153.408 53.9534C153.916 55.1326 153.958 56.6519 153.262 58.6721C152.409 61.1459 151.003 62.4294 149.173 63.0016C147.297 63.588 144.916 63.4469 142.098 62.9046L141.631 62.8148L141.518 63.2763L140.261 68.3917L137.905 67.7949L139.145 62.7482L139.264 62.2658L138.782 62.1441C137.922 61.9269 137.046 61.6987 136.143 61.4482L135.646 61.3107L135.523 61.8109L134.28 66.8765L131.928 66.2803L133.186 61.1472L133.303 60.6683L132.826 60.5443C132.518 60.4642 132.205 60.3811 131.887 60.2971C131.415 60.1719 130.934 60.0445 130.453 59.9221L130.452 59.9219L126.689 58.9692L127.942 56.0376C128.167 56.0978 128.457 56.175 128.747 56.2509C129.052 56.3308 129.358 56.4098 129.587 56.4659C129.701 56.4938 129.8 56.5173 129.873 56.5325C129.906 56.5395 129.946 56.5474 129.982 56.5522L129.983 56.5524C129.988 56.553 129.999 56.5544 130.013 56.5557C130.589 56.6838 131.062 56.5643 131.419 56.3018C131.767 56.0459 131.958 55.6899 132.059 55.4377L132.072 55.4057L132.08 55.3722L134.255 46.5132L134.153 46.4883L134.161 46.4646L134.26 46.4889L135.813 40.1651L135.824 40.1205L135.827 40.0746C135.851 39.6526 135.794 39.1323 135.497 38.6565C135.201 38.1839 134.706 37.8145 133.97 37.6143C133.96 37.6099 133.952 37.6069 133.948 37.6053L133.947 37.6048C133.91 37.5899 133.869 37.5765 133.835 37.5664C133.763 37.5442 133.663 37.5167 133.55 37.487C133.321 37.4268 133.013 37.3507 132.708 37.2765C132.446 37.2131 132.183 37.1504 131.968 37.0995L132.613 34.4701L136.242 35.3908L136.238 35.4085L136.706 35.5268C137.401 35.7023 138.116 35.8687 138.839 36.0365L139.32 36.148L139.438 35.6687L140.681 30.6084L143.035 31.2051L141.818 36.1634L141.697 36.6553L142.19 36.7697C143.083 36.9767 143.977 37.1846 144.845 37.4044L145.334 37.5279L145.454 37.0388L146.66 32.1234L149.016 32.7198L147.771 37.7892L147.663 38.2304L148.091 38.3804C150.166 39.1062 151.897 39.993 153.034 41.1573C154.146 42.297 154.707 43.7183 154.43 45.6083ZM136.603 57.7484L136.484 58.2309L136.966 58.3524C137.143 58.397 137.354 58.4537 137.593 58.5178C138.822 58.8483 140.787 59.3764 142.64 59.4745C143.748 59.5332 144.875 59.4432 145.811 59.0286C146.761 58.6074 147.496 57.857 147.799 56.6706L147.801 56.6657L147.811 56.6241C148.118 55.376 147.829 54.3297 147.178 53.4844C146.545 52.6617 145.588 52.0503 144.578 51.5849C142.956 50.8374 141.047 50.405 139.804 50.1233C139.505 50.0557 139.245 49.9968 139.037 49.9443L138.549 49.8215L138.429 50.31L136.603 57.7484ZM139.265 46.9052L139.146 47.3873L139.627 47.509C139.774 47.5461 139.95 47.594 140.15 47.6483C141.173 47.9262 142.823 48.3745 144.385 48.433C145.323 48.4681 146.289 48.3672 147.098 47.9672C147.921 47.5606 148.551 46.8599 148.827 45.7839L148.83 45.7788L148.84 45.737C149.118 44.6033 148.897 43.6524 148.353 42.8819C147.825 42.1326 147.016 41.5876 146.167 41.1807C144.807 40.5292 143.197 40.1698 142.161 39.9387C141.913 39.8834 141.698 39.8354 141.527 39.7926L141.04 39.6702L140.92 40.1584L139.265 46.9052Z" stroke="#211E1E"/>
</g>
<defs>
<clipPath id="clip0_1_1308">
<rect width="212" height="212" fill="white"/>
</clipPath>
</defs>
</svg>
