<svg width="212" height="212" viewBox="0 0 212 212" fill="none" xmlns="http://www.w3.org/2000/svg">
<path d="M151.7 186.505H60.4961V43.3251L151.7 25.4941V186.505Z" stroke="#211E1E" stroke-width="2" stroke-miterlimit="10"/>
<path d="M203.364 186.507H151.812V110.419L203.364 102.134V186.507Z" stroke="#211E1E" stroke-width="2" stroke-miterlimit="10"/>
<path d="M60.5168 186.506H8.96484V124.361L60.5168 136.632V186.506Z" stroke="#211E1E" stroke-width="2" stroke-miterlimit="10"/>
<path d="M195.554 125.241H159.637V130.389H195.554V125.241Z" stroke="#211E1E" stroke-width="2" stroke-miterlimit="10"/>
<path d="M195.554 137.855H159.637V143.004H195.554V137.855Z" stroke="#211E1E" stroke-width="2" stroke-miterlimit="10"/>
<path d="M195.554 150.471H159.637V155.619H195.554V150.471Z" stroke="#211E1E" stroke-width="2" stroke-miterlimit="10"/>
<path d="M52.5294 143.896H16.7852V148.364H52.5294V143.896Z" stroke="#211E1E" stroke-width="2" stroke-miterlimit="10"/>
<path d="M52.5294 155.066H16.7852V159.534H52.5294V155.066Z" stroke="#211E1E" stroke-width="2" stroke-miterlimit="10"/>
<path d="M52.5294 166.237H16.7852V170.705H52.5294V166.237Z" stroke="#211E1E" stroke-width="2" stroke-miterlimit="10"/>
<path d="M83.7611 56.084H78.4297V61.2322H83.7611V56.084Z" stroke="#211E1E" stroke-width="2" stroke-miterlimit="10"/>
<path d="M83.7611 68.792H78.4297V73.9402H83.7611V68.792Z" stroke="#211E1E" stroke-width="2" stroke-miterlimit="10"/>
<path d="M83.7611 81.507H78.4297V86.6551H83.7611V81.507Z" stroke="#211E1E" stroke-width="2" stroke-miterlimit="10"/>
<path d="M100.421 56.084H95.0898V61.2322H100.421V56.084Z" stroke="#211E1E" stroke-width="2" stroke-miterlimit="10"/>
<path d="M100.421 68.7988H95.0898V73.947H100.421V68.7988Z" stroke="#211E1E" stroke-width="2" stroke-miterlimit="10"/>
<path d="M100.421 81.5068H95.0898V86.655H100.421V81.5068Z" stroke="#211E1E" stroke-width="2" stroke-miterlimit="10"/>
<path d="M117.097 56.084H111.766V61.2322H117.097V56.084Z" stroke="#211E1E" stroke-width="2" stroke-miterlimit="10"/>
<path d="M117.097 68.7988H111.766V73.947H117.097V68.7988Z" stroke="#211E1E" stroke-width="2" stroke-miterlimit="10"/>
<path d="M117.097 81.5068H111.766V86.655H117.097V81.5068Z" stroke="#211E1E" stroke-width="2" stroke-miterlimit="10"/>
<path d="M133.765 56.084H128.434V61.2322H133.765V56.084Z" stroke="#211E1E" stroke-width="2" stroke-miterlimit="10"/>
<path d="M133.765 68.7988H128.434V73.947H133.765V68.7988Z" stroke="#211E1E" stroke-width="2" stroke-miterlimit="10"/>
<path d="M133.765 81.5068H128.434V86.655H133.765V81.5068Z" stroke="#211E1E" stroke-width="2" stroke-miterlimit="10"/>
<path d="M83.7611 94.2147H78.4297V99.3629H83.7611V94.2147Z" stroke="#211E1E" stroke-width="2" stroke-miterlimit="10"/>
<path d="M83.7611 106.93H78.4297V112.078H83.7611V106.93Z" stroke="#211E1E" stroke-width="2" stroke-miterlimit="10"/>
<path d="M83.7611 119.645H78.4297V124.793H83.7611V119.645Z" stroke="#211E1E" stroke-width="2" stroke-miterlimit="10"/>
<path d="M100.421 94.2148H95.0898V99.363H100.421V94.2148Z" stroke="#211E1E" stroke-width="2" stroke-miterlimit="10"/>
<path d="M100.421 106.93H95.0898V112.078H100.421V106.93Z" stroke="#211E1E" stroke-width="2" stroke-miterlimit="10"/>
<path d="M100.421 119.645H95.0898V124.793H100.421V119.645Z" stroke="#211E1E" stroke-width="2" stroke-miterlimit="10"/>
<path d="M117.097 94.2148H111.766V99.363H117.097V94.2148Z" stroke="#211E1E" stroke-width="2" stroke-miterlimit="10"/>
<path d="M117.097 106.93H111.766V112.078H117.097V106.93Z" stroke="#211E1E" stroke-width="2" stroke-miterlimit="10"/>
<path d="M117.097 119.645H111.766V124.793H117.097V119.645Z" stroke="#211E1E" stroke-width="2" stroke-miterlimit="10"/>
<path d="M133.765 94.2148H128.434V99.363H133.765V94.2148Z" stroke="#211E1E" stroke-width="2" stroke-miterlimit="10"/>
<path d="M133.765 106.93H128.434V112.078H133.765V106.93Z" stroke="#211E1E" stroke-width="2" stroke-miterlimit="10"/>
<path d="M133.765 119.645H128.434V124.793H133.765V119.645Z" stroke="#211E1E" stroke-width="2" stroke-miterlimit="10"/>
<path d="M83.7611 132.359H78.4297V137.508H83.7611V132.359Z" stroke="#211E1E" stroke-width="2" stroke-miterlimit="10"/>
<path d="M83.7611 145.067H78.4297V150.215H83.7611V145.067Z" stroke="#211E1E" stroke-width="2" stroke-miterlimit="10"/>
<path d="M100.421 132.359H95.0898V137.508H100.421V132.359Z" stroke="#211E1E" stroke-width="2" stroke-miterlimit="10"/>
<path d="M100.421 145.067H95.0898V150.216H100.421V145.067Z" stroke="#211E1E" stroke-width="2" stroke-miterlimit="10"/>
<path d="M117.097 132.359H111.766V137.508H117.097V132.359Z" stroke="#211E1E" stroke-width="2" stroke-miterlimit="10"/>
<path d="M117.097 145.067H111.766V150.216H117.097V145.067Z" stroke="#211E1E" stroke-width="2" stroke-miterlimit="10"/>
<path d="M133.765 132.359H128.434V137.508H133.765V132.359Z" stroke="#211E1E" stroke-width="2" stroke-miterlimit="10"/>
<path d="M133.765 145.067H128.434V150.216H133.765V145.067Z" stroke="#211E1E" stroke-width="2" stroke-miterlimit="10"/>
<path d="M124.371 162.242H87.9648V186.502H124.371V162.242Z" stroke="#211E1E" stroke-width="2" stroke-miterlimit="10"/>
</svg>
