<svg width="212" height="212" viewBox="0 0 212 212" fill="none" xmlns="http://www.w3.org/2000/svg">
<g clip-path="url(#clip0_1_1316)">
<path d="M100.998 128.33C102.563 128.33 104.092 128.794 105.393 129.663C106.694 130.533 107.708 131.768 108.306 133.213C108.905 134.659 109.062 136.249 108.756 137.784C108.451 139.318 107.698 140.727 106.592 141.834C105.485 142.94 104.076 143.693 102.542 143.998C101.007 144.304 99.4168 144.147 97.9714 143.548C96.5261 142.95 95.2907 141.936 94.4215 140.635C93.5524 139.334 93.0884 137.805 93.0884 136.24C93.0884 134.143 93.9218 132.131 95.4052 130.647C96.8886 129.164 98.9006 128.33 100.998 128.33ZM100.998 127.4C99.2496 127.398 97.5395 127.915 96.0845 128.885C94.6294 129.855 93.4948 131.235 92.8242 132.851C92.1536 134.466 91.9771 136.243 92.3171 137.959C92.657 139.674 93.4982 141.25 94.7341 142.488C95.97 143.725 97.5451 144.568 99.2602 144.91C100.975 145.252 102.753 145.077 104.369 144.408C105.985 143.74 107.366 142.607 108.338 141.153C109.31 139.699 109.828 137.989 109.828 136.24C109.828 133.898 108.898 131.651 107.243 129.993C105.587 128.336 103.341 127.403 100.998 127.4Z" fill="#211E1E"/>
<path d="M131.53 195.26C133.094 195.26 134.623 195.724 135.924 196.593C137.225 197.462 138.239 198.698 138.838 200.143C139.436 201.588 139.593 203.179 139.288 204.713C138.982 206.248 138.229 207.657 137.123 208.763C136.017 209.87 134.607 210.623 133.073 210.928C131.538 211.233 129.948 211.077 128.503 210.478C127.057 209.879 125.822 208.865 124.953 207.565C124.084 206.264 123.62 204.735 123.62 203.17C123.62 201.072 124.453 199.06 125.936 197.577C127.42 196.093 129.432 195.26 131.53 195.26ZM131.53 194.33C129.781 194.328 128.071 194.845 126.616 195.815C125.161 196.785 124.026 198.165 123.355 199.78C122.685 201.395 122.508 203.173 122.848 204.889C123.188 206.604 124.029 208.18 125.265 209.417C126.501 210.655 128.076 211.498 129.791 211.839C131.506 212.181 133.284 212.007 134.9 211.338C136.516 210.669 137.897 209.536 138.869 208.082C139.841 206.628 140.36 204.919 140.36 203.17C140.36 200.827 139.43 198.58 137.774 196.923C136.118 195.265 133.872 194.333 131.53 194.33Z" fill="#211E1E"/>
<path d="M70.5197 195.26C72.0846 195.258 73.6149 195.72 74.917 196.588C76.2191 197.456 77.2345 198.691 77.8347 200.136C78.4349 201.581 78.593 203.172 78.2889 204.707C77.9848 206.242 77.2323 207.653 76.1264 208.76C75.0206 209.867 73.6112 210.621 72.0765 210.927C70.5419 211.233 68.9509 211.077 67.505 210.479C66.059 209.881 64.8231 208.867 63.9535 207.566C63.0839 206.265 62.6197 204.735 62.6197 203.17C62.6223 201.075 63.4552 199.066 64.9359 197.583C66.4165 196.101 68.4244 195.265 70.5197 195.26ZM70.5197 194.33C68.7713 194.33 67.0622 194.849 65.6084 195.82C64.1547 196.791 63.0217 198.172 62.3526 199.787C61.6835 201.402 61.5085 203.18 61.8495 204.895C62.1906 206.609 63.0326 208.185 64.2689 209.421C65.5052 210.657 67.0803 211.499 68.7951 211.84C70.5099 212.181 72.2873 212.006 73.9026 211.337C75.5179 210.668 76.8985 209.535 77.8699 208.081C78.8412 206.628 79.3597 204.918 79.3597 203.17C79.3597 202.009 79.131 200.86 78.6868 199.787C78.2425 198.715 77.5914 197.74 76.7705 196.919C75.9496 196.098 74.9751 195.447 73.9026 195.003C72.8301 194.559 71.6806 194.33 70.5197 194.33Z" fill="#211E1E"/>
<path d="M37.3398 121.55V102.42H164.72V121.55" stroke="#211E1E" stroke-width="2" stroke-miterlimit="10"/>
<path d="M70.5195 189.36V170.22H131.52V189.36" stroke="#211E1E" stroke-width="2" stroke-miterlimit="10"/>
<path d="M101 102.25V121.55" stroke="#211E1E" stroke-width="2" stroke-miterlimit="10"/>
<path d="M101 150.92V170.22" stroke="#211E1E" stroke-width="2" stroke-miterlimit="10"/>
<path d="M101 83V102.47" stroke="#211E1E" stroke-width="2" stroke-miterlimit="10"/>
<path d="M20.8086 189.36V170.22H37.3386V150.92" stroke="#211E1E" stroke-width="2" stroke-miterlimit="10"/>
<path d="M181.239 189.36V170.59H164.719V150.92" stroke="#211E1E" stroke-width="2" stroke-miterlimit="10"/>
<path d="M190.141 196.17V211H175.291V196.17H190.141ZM191.061 195.24H174.371V211.94H191.061V195.24Z" fill="#211E1E"/>
<path d="M171.58 129.38V144.23H156.74V129.38H171.58ZM172.51 128.46H155.82V145.15H172.51V128.46Z" fill="#211E1E"/>
<mask id="path-13-inside-1_1_1316" fill="white">
<path d="M37.6088 131.1L44.5188 144.23H31.3988L37.6088 131.1ZM37.6088 129.03L29.9688 145.15H46.0487L37.5688 129L37.6088 129.03Z"/>
</mask>
<path d="M37.6088 131.1L44.5188 144.23H31.3988L37.6088 131.1ZM37.6088 129.03L29.9688 145.15H46.0487L37.5688 129L37.6088 129.03Z" fill="#211E1E"/>
<path d="M37.6088 131.1L39.3786 130.169L37.5133 126.624L35.8008 130.245L37.6088 131.1ZM44.5188 144.23V146.23H47.8314L46.2886 143.299L44.5188 144.23ZM31.3988 144.23L29.5908 143.375L28.2404 146.23H31.3988V144.23ZM37.6088 129.03L39.416 129.887L40.1158 128.41L38.8087 127.43L37.6088 129.03ZM29.9688 145.15L28.1615 144.293L26.8076 147.15H29.9688V145.15ZM46.0487 145.15V147.15H49.3578L47.8195 144.22L46.0487 145.15ZM37.5688 129L38.7687 127.4L35.798 129.93L37.5688 129ZM35.8389 132.031L42.7489 145.161L46.2886 143.299L39.3786 130.169L35.8389 132.031ZM44.5188 142.23H31.3988V146.23H44.5188V142.23ZM33.2067 145.085L39.4167 131.955L35.8008 130.245L29.5908 143.375L33.2067 145.085ZM35.8015 128.173L28.1615 144.293L31.776 146.007L39.416 129.887L35.8015 128.173ZM29.9688 147.15H46.0487V143.15H29.9688V147.15ZM47.8195 144.22L39.3395 128.07L35.798 129.93L44.278 146.08L47.8195 144.22ZM36.3688 130.6L36.4088 130.63L38.8087 127.43L38.7687 127.4L36.3688 130.6Z" fill="black" mask="url(#path-13-inside-1_1_1316)"/>
<path d="M20.9105 198L27.8205 211.12H14.7005L20.9105 198ZM20.9105 195.93L13.2305 212H29.3605L20.8705 195.88L20.9105 195.93Z" fill="#211E1E"/>
<circle cx="100.55" cy="36.55" r="34.55" stroke="#211E1E" stroke-width="2"/>
<path d="M113.43 32.6083L113.43 32.6089C113.223 34.0294 112.738 35.0421 112.084 35.7551C111.43 36.4681 110.573 36.916 109.564 37.1531L108.265 37.4581L109.444 38.0818C110.879 38.8406 111.898 39.7687 112.408 40.9534C112.916 42.1326 112.958 43.6519 112.262 45.6721C111.409 48.1459 110.003 49.4294 108.173 50.0016C106.297 50.588 103.916 50.4469 101.098 49.9046L100.631 49.8148L100.518 50.2763L99.2612 55.3917L96.9051 54.7949L98.1452 49.7482L98.2637 49.2658L97.7821 49.1441C96.9224 48.9269 96.0465 48.6987 95.1425 48.4482L94.6462 48.3107L94.5234 48.8109L93.2804 53.8765L90.9277 53.2803L92.186 48.1472L92.3034 47.6683L91.8261 47.5443C91.5182 47.4642 91.2046 47.3811 90.8874 47.2971C90.4147 47.1719 89.934 47.0445 89.4526 46.9221L89.4521 46.9219L85.6894 45.9692L86.9416 43.0376C87.1668 43.0978 87.4571 43.175 87.7468 43.2509C88.0516 43.3308 88.358 43.4098 88.5871 43.4659C88.7006 43.4938 88.8003 43.5173 88.8728 43.5325C88.9064 43.5395 88.9463 43.5474 88.9821 43.5522L88.9832 43.5524C88.9881 43.553 88.9986 43.5544 89.0129 43.5557C89.5888 43.6838 90.0616 43.5643 90.4191 43.3018C90.7674 43.0459 90.9585 42.6899 91.0588 42.4377L91.0715 42.4057L91.0797 42.3722L93.2545 33.5132L93.1532 33.4883L93.161 33.4646L93.2599 33.4889L94.813 27.1651L94.824 27.1205L94.8266 27.0746C94.8509 26.6526 94.7941 26.1323 94.4968 25.6565C94.2015 25.1839 93.706 24.8145 92.9697 24.6143C92.9598 24.6099 92.9524 24.6069 92.9484 24.6053L92.9473 24.6048C92.9104 24.5899 92.8688 24.5765 92.8355 24.5664C92.763 24.5442 92.6628 24.5167 92.5497 24.487C92.3208 24.4268 92.0135 24.3507 91.7076 24.2765C91.4459 24.2131 91.1833 24.1504 90.9682 24.0995L91.6128 21.4701L95.2416 22.3908L95.2378 22.4085L95.7061 22.5268C96.4009 22.7023 97.116 22.8687 97.8391 23.0365L98.3199 23.148L98.4377 22.6687L99.6806 17.6084L102.035 18.2051L100.818 23.1634L100.697 23.6553L101.19 23.7697C102.083 23.9767 102.977 24.1846 103.845 24.4044L104.334 24.5279L104.454 24.0388L105.66 19.1234L108.016 19.7198L106.771 24.7892L106.663 25.2304L107.091 25.3804C109.166 26.1062 110.897 26.993 112.034 28.1573C113.146 29.297 113.707 30.7183 113.43 32.6083ZM95.6028 44.7484L95.4843 45.2309L95.9661 45.3524C96.1431 45.397 96.354 45.4537 96.5926 45.5178C97.8223 45.8483 99.7873 46.3764 101.64 46.4745C102.748 46.5332 103.875 46.4432 104.811 46.0286C105.761 45.6074 106.496 44.857 106.799 43.6706L106.801 43.6657L106.811 43.6241C107.118 42.376 106.829 41.3297 106.178 40.4844C105.545 39.6617 104.588 39.0503 103.578 38.5849C101.956 37.8374 100.047 37.405 98.8036 37.1233C98.5052 37.0557 98.2451 36.9968 98.0365 36.9443L97.5488 36.8215L97.4289 37.31L95.6028 44.7484ZM98.2646 33.9052L98.1463 34.3873L98.6275 34.509C98.7741 34.5461 98.9501 34.594 99.1501 34.6483C100.173 34.9262 101.823 35.3745 103.385 35.433C104.323 35.4681 105.289 35.3672 106.098 34.9672C106.921 34.5606 107.551 33.8599 107.827 32.7839L107.83 32.7788L107.84 32.737C108.118 31.6033 107.897 30.6524 107.353 29.8819C106.825 29.1326 106.016 28.5876 105.167 28.1807C103.807 27.5292 102.197 27.1698 101.161 26.9387C100.913 26.8834 100.698 26.8354 100.527 26.7926L100.04 26.6702L99.9201 27.1584L98.2646 33.9052Z" stroke="#211E1E"/>
</g>
<defs>
<clipPath id="clip0_1_1316">
<rect width="212" height="212" fill="white"/>
</clipPath>
</defs>
</svg>
